<?xml version="1.0" encoding="UTF-8" standalone="no"?>
<svg
   version="1.1"
   id="Layer_1"
   x="0px"
   y="0px"
   width="100%"
   viewBox="0 0 1024 1024"
   enable-background="new 0 0 1024 1024"
   xml:space="preserve"
   sodipodi:docname="file.svg"
   inkscape:version="1.4.2 (f4327f4, 2025-05-13)"
   xmlns:inkscape="http://www.inkscape.org/namespaces/inkscape"
   xmlns:sodipodi="http://sodipodi.sourceforge.net/DTD/sodipodi-0.dtd"
   xmlns="http://www.w3.org/2000/svg"
   xmlns:svg="http://www.w3.org/2000/svg"><defs
   id="defs32" /><sodipodi:namedview
   id="namedview32"
   pagecolor="#505050"
   bordercolor="#eeeeee"
   borderopacity="1"
   inkscape:showpageshadow="0"
   inkscape:pageopacity="0"
   inkscape:pagecheckerboard="0"
   inkscape:deskcolor="#505050"
   inkscape:zoom="1.8662109"
   inkscape:cx="535.84511"
   inkscape:cy="495.92465"
   inkscape:window-width="3840"
   inkscape:window-height="2131"
   inkscape:window-x="-9"
   inkscape:window-y="1791"
   inkscape:window-maximized="1"
   inkscape:current-layer="Layer_1" />
<path
   fill="#000000"
   opacity="1.000000"
   stroke="none"
   d=" M669.000000,1025.000000   C447.500000,1025.000000 226.500000,1024.989014 5.500044,1025.093628   C1.750787,1025.095337 0.905801,1024.249146 0.906913,1020.500000   C1.007246,682.166687 1.007246,343.833344 0.906913,5.500028   C0.905801,1.750903 1.750902,0.905800 5.500028,0.906912   C343.833344,1.007255 682.166687,1.007255 1020.500000,0.906912   C1024.249146,0.905800 1025.094360,1.750902 1025.093262,5.500027   C1024.992920,343.833344 1024.992798,682.166687 1025.093140,1020.500000   C1025.094238,1024.249146 1024.249512,1025.098267 1020.499878,1025.094604   C903.500000,1024.979248 786.500000,1025.000000 669.000000,1025.000000  z"
   id="path1" />
<path
   fill="#bf0603"
   opacity="1"
   stroke="none"
   d="m 393.44056,853.01869 c 19.21018,-0.54459 37.8088,-0.54459 56.40735,-0.54459 0.16073,-0.54484 0.3215,-1.08969 0.48228,-1.63441 -6.01033,-2.0125 -11.92945,-4.37453 -18.04853,-5.96988 -16.53988,-4.31208 -33.12211,-8.4849 -49.78286,-12.29651 -4.85922,-1.11187 -6.17629,-2.05579 -3.17869,-6.83531 6.05645,-9.6567 13.04891,-15.07738 25.70567,-13.32869 50.49494,6.9765 101.42554,10.70937 151.61755,19.97277 23.96572,4.42313 42.99011,16.21713 53.57867,39.05506 2.25401,4.86138 5.10602,5.04995 9.39628,3.63775 125.92373,-41.45048 211.28822,-121.36305 239.85394,-254.34647 2.32489,-10.82354 5.89151,-18.41759 14.70664,-24.80788 8.72641,-6.32579 16.33745,-14.19013 25.7887,-22.5786 1.80731,38.52264 -4.0414,74.66864 -14.41825,110.33599 -10.3983,35.74174 -27.54475,68.39734 -46.19527,100.40704 C 894.6555,753.04956 940.00223,595.55425 917.30016,515.36751 812.25033,644.15423 677.20617,713.02503 511.16532,712.77015 345.35739,712.51563 211.05695,642.95905 105.79197,513.09277 c 0.2445,26.81279 2.60955,51.82986 7.82208,76.52837 24.65802,116.83528 87.13357,207.23405 189.12217,269.91469 1.12078,0.68892 2.21017,1.52301 3.4335,1.93655 13.59357,4.59637 22.10892,12.3357 19.93256,28.39149 -0.89165,6.57802 4.06662,11.42759 8.39444,16.10825 22.92799,24.79665 49.11033,45.69985 76.89851,64.70834 2.9346,2.00743 5.81507,4.09422 8.11452,7.87483 -9.23936,-2.16297 -18.62936,-3.82679 -27.69589,-6.56258 C 200.19254,914.17321 80.979143,787.45843 45.525494,590.8103 -0.12915226,337.58052 169.07966,97.144061 421.54914,46.894122 c 19.05315,-3.792256 38.36245,-5.83382 57.63528,-8.190602 35.10093,-4.29237 66.15816,7.001329 96.38541,24.267314 4.94591,7.068125 2.70601,14.320836 2.12161,21.223782 -0.47214,5.579181 -5.26323,5.841415 -9.80945,5.754484 -3.60701,-0.06914 -7.63347,-1.353183 -10.67321,3.426216 -1.35831,1.44174 -2.32429,1.961988 -4.18307,2.335384 -3.40288,1.719769 -7.22112,-7.174043 -8.98634,1.700841 0.29286,2.001896 -0.12155,3.179779 -0.72196,4.365969 -9.02372,17.82537 -6.86653,25.10972 11.01669,36.35507 1.05773,3.64715 2.81163,5.7871 6.20366,7.59042 3.7048,6.53414 10.18973,5.10746 15.16084,7.04854 10.23518,3.9968 12.39393,9.21145 6.63118,19.13766 -3.95882,0.69296 -7.29214,0.80455 -11.45882,0.87104 -1.13344,0.25693 -1.43329,0.55889 -1.34311,1.36615 25.9283,9.21783 52.26606,14.89539 78.56523,20.82278 -6.10709,16.39874 -12.09794,20.84616 -28.4238,18.9758 -51.94162,-5.95058 -103.9915,-11.16692 -155.38978,-21.14644 -22.43495,-4.35597 -39.47318,-16.1411 -49.39236,-36.90317 -2.91741,-6.10646 -6.32898,-5.10317 -11.07118,-3.69489 -115.26416,34.23074 -192.44384,108.4505 -232.11203,221.6746 -3.18978,9.10444 -7.25772,16.08527 -14.99396,21.97485 -10.36986,7.89461 -19.65521,17.21379 -29.56142,26.05996 -6.56964,-34.49796 22.35073,-120.62968 60.89125,-181.95914 -1.80369,-2.674 0.99299,-3.12244 1.75147,-4.84679 0.7606,-1.09355 1.24396,-1.65201 2.08859,-2.47223 0.30842,-0.30846 0.70857,-0.70857 0.74896,-0.74897 0.0405,-0.0405 -0.22437,0.22451 -0.42295,0.42313 -0.54954,0.54847 -0.89835,0.90041 -1.56242,1.62965 -1.15167,1.50702 -1.88755,2.73488 -3.77165,3.49753 -41.11733,43.47177 -66.88674,94.52204 -79.22051,152.40575 -6.50809,30.54337 -7.01761,61.30256 -1.3612,94.0742 104.98087,-128.85888 237.96393,-200.02637 404.33869,-200.5454 166.49275,-0.51947 300.25709,69.30712 407.04454,198.61735 -0.50529,-17.30733 -2.97717,-31.94665 -6.07706,-46.4393 -23.37085,-109.26154 -80.37447,-196.17135 -173.10007,-259.05394 -9.75856,-6.61787 -20.48867,-11.86242 -31.01502,-17.26293 -4.85897,-2.49289 -7.64251,-5.10196 -7.27201,-11.14497 0.81274,-13.25568 -4.71091,-23.48242 -14.34266,-32.95368 -23.32007,-22.931678 -48.01667,-44.02561 -75.13606,-62.293628 -1.54048,-1.037661 -3.79281,-1.455426 -4.02659,-4.713933 24.43293,4.459354 48.19995,10.570596 70.93539,19.880183 179.24815,73.397308 284.53104,205.953668 306.65654,398.300768 28.38092,246.72801 -149.74887,475.91839 -394.6231,514.70157 -15.61512,2.47307 -31.39133,3.56421 -47.00983,5.71981 -31.66416,4.36996 -59.82905,-5.18931 -86.95742,-19.73971 -35.39583,-18.98462 -66.40804,-43.77103 -94.89188,-72.82588 -9.16829,-16.82827 -3.55753,-20.67508 10.3162,-27.97891 7.454,-3.92398 14.8995,-7.64552 22.31081,-13.16172 z"
   id="path2"
   style="stroke-width:1.97538" />
<path
   fill="#bf0603"
   opacity="1"
   stroke="none"
   d="m 554.07441,92.637929 c 1.0312,-5.991762 5.018,-6.921816 9.48898,-6.819214 6.74947,0.15487 10.15802,-2.113601 9.38772,-9.735066 -0.3628,-3.589824 1.68782,-7.423496 2.85056,-11.878449 11.8966,4.842999 22.56039,12.076962 33.46907,20.068871 1.32057,3.687001 3.90045,6.032513 3.30402,10.136614 -1.77766,12.233455 2.08954,15.588055 15.9867,14.447975 4.36319,1.00251 8.2744,-0.15011 12.56261,1.55061 0.69374,0.15782 0.65588,0.27556 0.71328,0.25277 2.24917,9.59888 7.02194,18.1023 11.54753,26.72718 2.03157,3.87153 4.54166,7.53527 8.60403,8.98201 7.47565,2.6623 9.99707,7.60935 8.57955,15.75106 -0.48853,2.57134 -0.57908,4.67957 -1.51263,6.30295 -2.95196,5.13296 -1.07955,7.00795 4.08951,8.99623 14.08731,5.41876 28.02402,11.29388 41.7296,17.6184 9.40207,4.3386 9.18455,4.80991 8.68022,16.6136 -9.14128,-3.83547 -17.92036,-8.16028 -27.39741,-10.61955 -6.26431,-1.6256 -9.5324,-1.07461 -6.92888,6.83195 2.76714,8.40291 4.67897,17.09725 6.7192,25.72231 0.45767,1.93462 1.90376,4.81183 -1.37843,5.82357 -3.05047,0.94031 -4.89262,-0.76766 -5.94529,-3.6448 -6.05416,-16.54597 -14.94236,-31.41002 -26.63808,-44.59107 -5.39442,-6.07954 3.07445,-9.88939 2.43823,-15.4705 -3.79666,-2.12451 -8.14805,-0.53719 -12.94228,-1.44035 -4.50487,-5.30044 -8.9181,-5.18976 -13.89752,-1.11953 -18.12352,0.32559 -36.0885,-0.004 -54.967,-0.49378 -0.0203,-8.93221 -3.28738,-14.4622 -12.4429,-16.37525 -4.73803,-0.98997 -9.4094,-2.96884 -11.92117,-8.6297 1.22303,-4.92854 10.48378,-3.18544 7.75365,-11.53007 1.0874,-2.9182 3.23736,-4.21129 4.80063,-6.81988 1.28899,-2.06585 2.19071,-3.57234 3.08797,-5.78817 0.33071,-0.98528 0.45079,-1.37815 0.70916,-2.36132 0.48228,-2.53046 0.61863,-4.47816 0.25283,-7.05437 -1.76244,-8.33004 -6.39511,-13.29927 -13.8499,-15.8609 -2.71624,-0.933371 -5.7438,-1.701985 -6.93356,-5.594131 z"
   id="path3"
   style="stroke-width:1.97538" />

<path
   fill="#bf0603"
   opacity="1"
   stroke="none"
   d="m 393.14837,852.31386 c -1.07745,9.45716 -7.4672,14.49759 -15.97912,17.24749 -13.47475,4.35307 -16.4855,8.26161 -16.66822,23.17673 -12.08003,-6.57128 -9.28384,-17.12307 -6.18996,-27.86041 3.78917,-13.15024 3.65106,-13.05464 -9.19084,-18.44206 -11.48679,-4.81906 -22.7032,-10.31005 -34.30718,-14.81323 -8.57918,-3.32946 -11.44693,-8.65635 -8.60595,-17.81932 8.59902,4.43903 17.09718,8.63597 26.43994,10.60953 6.50875,1.37508 9.30457,-0.058 6.8989,-7.49806 -2.41357,-7.46467 -3.80533,-15.26126 -5.60491,-22.92172 -0.49934,-2.1256 -2.2279,-5.16933 0.23721,-6.16279 2.71733,-1.09487 5.87397,0.32071 7.24782,3.50199 2.2082,5.11313 4.13474,10.34996 6.41014,15.43149 4.04339,9.03011 8.39357,18.34453 15.91779,24.62644 8.87568,7.4104 0.25899,12.64241 -1.28083,20.76369 11.72852,0 22.74998,0 34.67521,0.16023 z"
   id="path5"
   style="stroke-width:1.97538" />
<path
   fill="#bf0603"
   opacity="1"
   stroke="none"
   d="m 670.93716,162.16979 c -2.37927,-5.33237 -6.55752,-8.77872 -12.19415,-11.64267 -11.69175,-5.94065 -21.41138,-28.37196 -17.14319,-39.189 7.45309,5.94968 14.16073,13.18515 21.87641,19.10723 11.16186,8.56719 12.47532,18.90045 7.46093,31.72444 z"
   id="path6"
   style="stroke-width:1.97538" />
<path
   fill="#bf0603"
   opacity="1"
   stroke="none"
   d="m 629.6028,114.91836 c -4.03116,0.16801 -7.70532,0.33602 -11.10496,-0.54961 -12.29085,-3.20171 -15.36794,-9.55397 -10.91673,-21.486371 0.79043,-2.118788 1.2457,-4.36266 1.98308,-7.341751 10.12172,5.197886 18.8075,12.877163 27.91199,21.049562 -1.703,3.55956 -5.37235,4.82244 -7.87338,8.32817 z"
   id="path7"
   style="stroke-width:1.97538" />
<path
   fill="#bf0603"
   opacity="1"
   stroke="none"
   d="m 638.24045,173.9858 c -1.28643,-2.33256 -2.43894,-5.16721 0.47962,-5.92033 4.6686,-1.20471 8.79984,0.24608 11.73443,5.34974 -3.60675,0.70501 -7.50312,0.73064 -12.21405,0.57059 z"
   id="path8"
   style="stroke-width:1.97538" />
<path
   fill="#bf0603"
   opacity="1"
   stroke="none"
   d="m 629.81741,115.17046 c 0.27091,-3.75029 2.31236,-6.74138 7.3019,-7.83456 1.84805,0.66366 2.98632,1.49533 4.41156,2.77913 -3.48066,1.90948 -7.24838,3.36683 -11.71346,5.05543 z"
   id="path9"
   style="stroke-width:1.97538" />
<path
   fill="#bf0603"
   opacity="1"
   stroke="none"
   d="m 569.86183,174.16724 c -0.16349,0.007 -0.19762,-0.48244 0.0646,-1.20639 0.11109,-0.22571 -0.12064,0.72189 -0.0646,1.20639 z"
   id="path10"
   style="stroke-width:1.97538" />
<path
   fill="#bf0603"
   opacity="1"
   stroke="none"
   d="m 602.51271,47.26818 c 0.058,0.0069 -0.058,-0.007 0,0 z"
   id="path11"
   style="stroke-width:1.97538" />
<path
   fill="#040101"
   opacity="1"
   stroke="none"
   d="m 385.04023,630.94297 c -23.96813,-25.95664 -42.12715,-54.33475 -51.08456,-88.40748 -26.80049,-101.94469 44.671,-210.63271 149.1265,-225.59779 53.3599,-7.6448 105.01458,2.492 155.5206,18.41233 93.48372,29.46757 171.64591,83.25662 239.14766,153.5222 5.29024,5.50684 4.28784,8.61802 -0.33446,13.62311 -10.49427,11.36375 -10.47523,11.8488 -21.37545,0.56323 C 803.022,448.16596 741.80997,405.10881 671.6197,375.0043 c -9.04953,-3.8813 -18.4434,-6.96444 -27.70993,-10.32832 -1.14526,-0.41572 -2.49068,-0.28032 -4.81798,-0.50324 5.65652,6.35201 10.78075,11.75854 15.52228,17.48215 90.61591,109.38604 29.32023,266.02134 -104.78013,294.56487 -47.80719,10.17586 -95.18058,2.93943 -141.49895,-9.78184 -101.51957,-27.88211 -187.31533,-82.10811 -259.54013,-158.26157 -2.3958,-2.52613 -7.85814,-5.01649 -4.67427,-9.5239 3.94104,-5.57943 8.78898,-10.76694 14.15573,-14.95749 1.91459,-1.49497 4.54157,2.99157 6.50387,5.03826 32.72166,34.12995 68.80334,64.16936 108.69524,89.59201 34.25418,21.82974 70.40713,39.75506 109.61227,52.97053 1.19476,0.14889 1.65377,0.23968 1.95253,-0.35279 z"
   id="path12"
   style="stroke-width:1.97538" />
<path
   fill="#050202"
   opacity="1"
   stroke="none"
   d="m 553.52005,92.28961 c 12.88077,0.400886 22.5869,4.87555 26.61035,18.48679 1.99718,4.02609 1.83044,7.49632 0.43682,11.77487 -0.58922,1.07372 -0.72425,1.38562 -0.87304,2.20705 0.0999,3.44069 -1.52987,5.56586 -3.91167,7.90914 -2.11257,1.54977 -3.6163,2.81536 -5.51907,4.52 -4.25458,7.59439 -10.09737,7.9019 -17.50128,4.5848 -21.72679,-10.07627 -26.22286,-25.40981 -12.6634,-43.138412 1.23906,-5.484896 3.17272,-8.863969 9.71891,-6.053552 1.52951,0.263258 2.34756,0.146852 3.70238,-0.290686 z"
   id="path13"
   style="stroke-width:1.97538" />
<path
   fill="#050202"
   opacity="1"
   stroke="none"
   d="m 459.54049,931.74947 c -12.76589,-7.6214 -17.02329,-16.86949 -13.90862,-28.9713 2.48049,-9.63764 11.18893,-16.63415 21.45757,-17.23941 11.44409,-0.67444 20.78165,5.26771 24.47101,15.75499 3.24464,9.22301 1.17335,17.55843 -5.26776,24.58748 -7.14813,7.80057 -16.09516,9.41955 -26.7522,5.86824 z"
   id="path14"
   style="stroke-width:1.97538" />
<path
   fill="#bf0603"
   opacity="1"
   stroke="none"
   d="m 552.23491,141.78288 c 5.50774,-0.5897 11.15427,-0.67272 16.94462,-3.91458 0.68868,6.67211 -3.21745,9.27119 -10.4012,9.12537 -3.49439,-0.47481 -5.62096,-1.69621 -6.54342,-5.21079 z"
   id="path15"
   style="stroke-width:1.97538" />
<path
   fill="#bf0603"
   opacity="1"
   stroke="none"
   d="m 550.07966,92.35761 c -2.52057,2.15363 -5.49074,3.704904 -9.06219,5.466992 -2.45835,-2.420383 -5.48978,-5.286744 -1.69553,-8.188131 3.78835,-2.896804 7.40631,-1.241055 10.75772,2.721139 z"
   id="path16"
   style="stroke-width:1.97538" />

<path
   fill="#bf0603"
   opacity="1"
   stroke="none"
   d="m 580.60532,122.91159 c -0.42285,-2.98874 -0.35352,-6.37896 -0.24549,-10.61713 3.75229,2.61998 4.16161,6.29673 0.24549,10.61713 z"
   id="path28"
   style="stroke-width:1.97538" />
<path
   fill="#bf0603"
   opacity="1"
   stroke="none"
   d="m 575.7461,132.75505 c 0.6372,-2.05476 1.84695,-4.30612 3.49548,-7.02231 1.88301,3.148 0.42427,5.42226 -3.49548,7.02231 z"
   id="path29"
   style="stroke-width:1.97538" />
<path
   fill="#bf0603"
   opacity="1"
   stroke="none"
   d="M 552.25576,649.14365 C 447.83438,675.1865 347.06763,592.35284 354.87436,487.73644 c 5.74694,-77.01397 65.7454,-138.83733 142.3918,-146.72277 74.85726,-7.70134 145.27143,40.10169 167.22126,113.52371 24.81188,82.9959 -24.99981,169.89244 -112.23166,194.60627 z"
   id="path30"
   style="stroke-width:1.97538" />

<path
   fill="#000"
   opacity="1"
   stroke="none"
   d="m 610.18558,514.75165 c -9.93435,49.89029 -52.93507,82.90409 -103.94688,80.47574 -47.17223,-2.24568 -87.06365,-40.14232 -92.0685,-87.46471 -4.9951,-47.22871 25.79658,-92.04614 71.90083,-104.65226 69.88759,-19.10935 134.81887,38.76338 124.11455,111.64123 z"
   id="path32"
   style="stroke-width:1.97538" />
</svg>
